M48
; DRILL file {KiCad 7.0.1-0} date 2023 April 14, Friday 11:03:36
; FORMAT={-:-/ absolute / inch / decimal}
; #@! TF.CreationDate,2023-04-14T11:03:36-05:00
; #@! TF.GenerationSoftware,Kicad,Pcbnew,7.0.1-0
; #@! TF.FileFunction,Plated,1,2,PTH
FMAT,2
INCH
; #@! TA.AperFunction,Plated,PTH,ViaDrill
T1C0.0157
; #@! TA.AperFunction,Plated,PTH,ComponentDrill
T2C0.0295
; #@! TA.AperFunction,Plated,PTH,ComponentDrill
T3C0.0315
; #@! TA.AperFunction,Plated,PTH,ComponentDrill
T4C0.0354
; #@! TA.AperFunction,Plated,PTH,ComponentDrill
T5C0.0394
%
G90
G05
T1
X4.1Y-4.3
X4.2Y-4.5
X4.2Y-4.8
X4.2Y-5.1141
X4.3329Y-4.3059
X4.4Y-4.0
X4.5Y-5.4
X4.5Y-5.5
X4.5Y-5.8
X4.6Y-4.1
X4.6Y-4.3715
X4.6Y-4.8
X4.6Y-5.3
X4.7Y-4.9
X4.7Y-5.2
X4.8Y-4.0726
X4.8Y-4.2
X4.9Y-4.0
X4.9Y-4.2
X5.0Y-4.2
X5.2Y-5.4285
X5.3Y-5.7
X5.3Y-5.8
X5.4Y-4.1
X5.4Y-5.6
X5.6Y-4.4
X5.6Y-5.1
T2
X4.9874Y-4.056
X5.0374Y-4.056
X5.0874Y-4.056
T3
X4.2Y-5.3
X4.3014Y-5.0412
X4.3031Y-4.5
X4.3031Y-4.8
X4.4982Y-5.0412
X4.5Y-4.5
X4.5Y-4.8
X4.5Y-5.3
X4.6423Y-5.3956
X4.6423Y-5.494
X4.65Y-5.8
X4.8Y-4.3
X4.8Y-4.4
X4.8Y-4.5
X4.8Y-4.6
X4.8Y-4.7
X4.8Y-4.8
X4.8Y-4.9
X4.8Y-5.0
X4.8Y-5.1
X4.8Y-5.2
X4.8Y-5.3
X4.8Y-5.4
X4.8Y-5.5
X4.8Y-5.6
X4.95Y-5.8
X5.1Y-4.3
X5.1Y-4.4
X5.1Y-4.5
X5.1Y-4.6
X5.1Y-4.7
X5.1Y-4.8
X5.1Y-4.9
X5.1Y-5.0
X5.1Y-5.1
X5.1Y-5.2
X5.1Y-5.3
X5.1Y-5.4
X5.1Y-5.5
X5.1Y-5.6
X5.2407Y-4.298
X5.2407Y-4.3964
X5.2915Y-4.6321
X5.3Y-5.1
X5.3Y-5.3
X5.3Y-5.6
X5.4969Y-5.1
X5.5Y-5.3
X5.5Y-5.6
X5.5915Y-4.6321
T4
X5.1629Y-5.741
X5.1629Y-5.841
X5.4099Y-5.7409
X5.4099Y-5.8409
X5.5006Y-4.2994
X5.5006Y-4.3994
T5
X4.0Y-4.0
X4.0Y-4.1
X4.0Y-4.4
X4.0Y-4.5
X4.0Y-4.6
X4.0Y-4.7
X4.0Y-4.8
X4.0Y-4.9
X4.0Y-5.0
X4.0Y-5.1
X4.0Y-5.2
X4.0Y-5.3
X4.0Y-5.4
X4.0Y-5.5
X4.2Y-4.0
X4.2Y-5.5
X4.2Y-5.7
X4.3Y-4.0
X4.3Y-4.2
X4.3984Y-4.2
X4.4Y-4.0
X4.4369Y-5.5
X4.4369Y-5.7
X4.4969Y-4.2
X4.5Y-4.0
X4.6Y-4.0
X4.7Y-4.0
X5.8Y-4.5
X5.8Y-4.6
X5.8Y-4.7
X5.8Y-4.8
X5.8Y-4.9
X5.8Y-5.0
X5.8Y-5.1
X5.8Y-5.2
X5.8Y-5.3
X5.8Y-5.4
X5.8Y-5.5
X5.8Y-5.6
T0
M30
