%TF.GenerationSoftware,KiCad,Pcbnew,7.0.1-0*%
%TF.CreationDate,2023-04-14T11:03:42-05:00*%
%TF.ProjectId,HW4,4857342e-6b69-4636-9164-5f7063625858,rev?*%
%TF.SameCoordinates,Original*%
%TF.FileFunction,Copper,L1,Top*%
%TF.FilePolarity,Positive*%
%FSLAX46Y46*%
G04 Gerber Fmt 4.6, Leading zero omitted, Abs format (unit mm)*
G04 Created by KiCad (PCBNEW 7.0.1-0) date 2023-04-14 11:03:42*
%MOMM*%
%LPD*%
G01*
G04 APERTURE LIST*
%TA.AperFunction,ComponentPad*%
%ADD10C,1.700000*%
%TD*%
%TA.AperFunction,ComponentPad*%
%ADD11R,1.700000X1.700000*%
%TD*%
%TA.AperFunction,ComponentPad*%
%ADD12O,1.700000X1.700000*%
%TD*%
%TA.AperFunction,ComponentPad*%
%ADD13C,1.600000*%
%TD*%
%TA.AperFunction,ComponentPad*%
%ADD14R,1.050000X1.500000*%
%TD*%
%TA.AperFunction,ComponentPad*%
%ADD15O,1.050000X1.500000*%
%TD*%
%TA.AperFunction,ComponentPad*%
%ADD16R,1.800000X1.800000*%
%TD*%
%TA.AperFunction,ComponentPad*%
%ADD17C,1.800000*%
%TD*%
%TA.AperFunction,ComponentPad*%
%ADD18O,1.600000X1.600000*%
%TD*%
%TA.AperFunction,ComponentPad*%
%ADD19R,1.600000X1.600000*%
%TD*%
%TA.AperFunction,ViaPad*%
%ADD20C,0.800000*%
%TD*%
%TA.AperFunction,Conductor*%
%ADD21C,0.250000*%
%TD*%
%TA.AperFunction,Profile*%
%ADD22C,0.100000*%
%TD*%
G04 APERTURE END LIST*
D10*
%TO.P,S1,1*%
%TO.N,+5V*%
X114220000Y-106680000D03*
%TO.P,S1,2*%
%TO.N,/Vin*%
X111720000Y-106680000D03*
%TO.P,S1,3*%
%TO.N,Net-(J2-Pin_1)*%
X109220000Y-106680000D03*
%TD*%
D11*
%TO.P,SW2,1,1*%
%TO.N,GND*%
X106680000Y-144780000D03*
D12*
%TO.P,SW2,2,2*%
%TO.N,/USER*%
X106680000Y-139700000D03*
%TD*%
D13*
%TO.P,C5,1*%
%TO.N,+3.3V*%
X133114339Y-109169811D03*
%TO.P,C5,2*%
%TO.N,GND*%
X133114339Y-111669811D03*
%TD*%
D11*
%TO.P,J4,1,Pin_1*%
%TO.N,/B15*%
X147320000Y-114300000D03*
D12*
%TO.P,J4,2,Pin_2*%
%TO.N,/B14*%
X147320000Y-116840000D03*
%TO.P,J4,3,Pin_3*%
%TO.N,/B13*%
X147320000Y-119380000D03*
%TO.P,J4,4,Pin_4*%
%TO.N,/B12*%
X147320000Y-121920000D03*
%TO.P,J4,5,Pin_5*%
%TO.N,/B11*%
X147320000Y-124460000D03*
%TO.P,J4,6,Pin_6*%
%TO.N,/B10*%
X147320000Y-127000000D03*
%TO.P,J4,7,Pin_7*%
%TO.N,/B9*%
X147320000Y-129540000D03*
%TO.P,J4,8,Pin_8*%
%TO.N,/B8*%
X147320000Y-132080000D03*
%TO.P,J4,9,Pin_9*%
%TO.N,/B7*%
X147320000Y-134620000D03*
%TO.P,J4,10,Pin_10*%
%TO.N,/Vin*%
X147320000Y-137160000D03*
%TO.P,J4,11,Pin_11*%
%TO.N,+3.3V*%
X147320000Y-139700000D03*
%TO.P,J4,12,Pin_12*%
%TO.N,GND*%
X147320000Y-142240000D03*
%TD*%
D11*
%TO.P,J3,1,Pin_1*%
%TO.N,unconnected-(J3-Pin_1-Pad1)*%
X106680000Y-101600000D03*
D12*
%TO.P,J3,2,Pin_2*%
%TO.N,/U1TX*%
X109220000Y-101600000D03*
%TO.P,J3,3,Pin_3*%
%TO.N,/U1RX*%
X111760000Y-101600000D03*
%TO.P,J3,4,Pin_4*%
%TO.N,+5V*%
X114300000Y-101600000D03*
%TO.P,J3,5,Pin_5*%
%TO.N,unconnected-(J3-Pin_5-Pad5)*%
X116840000Y-101600000D03*
%TO.P,J3,6,Pin_6*%
%TO.N,GND*%
X119380000Y-101600000D03*
%TD*%
D14*
%TO.P,U2,1,VO*%
%TO.N,+3.3V*%
X126680638Y-103021303D03*
D15*
%TO.P,U2,2,GND*%
%TO.N,GND*%
X127950638Y-103021303D03*
%TO.P,U2,3,VI*%
%TO.N,/Vin*%
X129220638Y-103021303D03*
%TD*%
D13*
%TO.P,C3,1*%
%TO.N,+3.3V*%
X109300000Y-121920000D03*
%TO.P,C3,2*%
%TO.N,GND*%
X114300000Y-121920000D03*
%TD*%
%TO.P,C2,1*%
%TO.N,+3.3V*%
X109300000Y-114300000D03*
%TO.P,C2,2*%
%TO.N,GND*%
X114300000Y-114300000D03*
%TD*%
D16*
%TO.P,D1,1,K*%
%TO.N,Net-(D1-K)*%
X131136782Y-148360796D03*
D17*
%TO.P,D1,2,A*%
%TO.N,+3.3V*%
X131136782Y-145820796D03*
%TD*%
D13*
%TO.P,R1,1*%
%TO.N,+3.3V*%
X125730000Y-147320000D03*
D18*
%TO.P,R1,2*%
%TO.N,/MCLR*%
X118110000Y-147320000D03*
%TD*%
D16*
%TO.P,D2,1,K*%
%TO.N,Net-(D2-K)*%
X137411481Y-148359146D03*
D17*
%TO.P,D2,2,A*%
%TO.N,+3.3V*%
X137411481Y-145819146D03*
%TD*%
D11*
%TO.P,J1,1,Pin_1*%
%TO.N,/A0*%
X101600000Y-111760000D03*
D12*
%TO.P,J1,2,Pin_2*%
%TO.N,/A1*%
X101600000Y-114300000D03*
%TO.P,J1,3,Pin_3*%
%TO.N,/B0*%
X101600000Y-116840000D03*
%TO.P,J1,4,Pin_4*%
%TO.N,/B1*%
X101600000Y-119380000D03*
%TO.P,J1,5,Pin_5*%
%TO.N,/B2*%
X101600000Y-121920000D03*
%TO.P,J1,6,Pin_6*%
%TO.N,/A3*%
X101600000Y-124460000D03*
%TO.P,J1,7,Pin_7*%
%TO.N,/GREEN*%
X101600000Y-127000000D03*
%TO.P,J1,8,Pin_8*%
%TO.N,/YELLOW*%
X101600000Y-129540000D03*
%TO.P,J1,9,Pin_9*%
%TO.N,/B6*%
X101600000Y-132080000D03*
%TO.P,J1,10,Pin_10*%
%TO.N,/Vin*%
X101600000Y-134620000D03*
%TO.P,J1,11,Pin_11*%
%TO.N,+3.3V*%
X101600000Y-137160000D03*
%TO.P,J1,12,Pin_12*%
%TO.N,GND*%
X101600000Y-139700000D03*
%TD*%
D13*
%TO.P,C6,1*%
%TO.N,Net-(U1-Vcap)*%
X109254945Y-128047700D03*
%TO.P,C6,2*%
%TO.N,GND*%
X114254945Y-128047700D03*
%TD*%
%TO.P,C4,1*%
%TO.N,+3.3V*%
X117913237Y-139548265D03*
%TO.P,C4,2*%
%TO.N,GND*%
X117913237Y-137048265D03*
%TD*%
%TO.P,R5,1*%
%TO.N,Net-(D3-K)*%
X142023075Y-117656105D03*
D18*
%TO.P,R5,2*%
%TO.N,GND*%
X134403075Y-117656105D03*
%TD*%
D13*
%TO.P,R2,1*%
%TO.N,+3.3V*%
X114300000Y-134620000D03*
D18*
%TO.P,R2,2*%
%TO.N,/USER*%
X106680000Y-134620000D03*
%TD*%
D13*
%TO.P,R3,1*%
%TO.N,Net-(D1-K)*%
X139700000Y-142240000D03*
D18*
%TO.P,R3,2*%
%TO.N,/GREEN*%
X139700000Y-134620000D03*
%TD*%
D19*
%TO.P,U1,1,~{MCLR}*%
%TO.N,/MCLR*%
X121920000Y-109220000D03*
D18*
%TO.P,U1,2,A0*%
%TO.N,/A0*%
X121920000Y-111760000D03*
%TO.P,U1,3,A1*%
%TO.N,/A1*%
X121920000Y-114300000D03*
%TO.P,U1,4,B0*%
%TO.N,/B0*%
X121920000Y-116840000D03*
%TO.P,U1,5,B1*%
%TO.N,/B1*%
X121920000Y-119380000D03*
%TO.P,U1,6,B2*%
%TO.N,/B2*%
X121920000Y-121920000D03*
%TO.P,U1,7,B3*%
%TO.N,/U1TX*%
X121920000Y-124460000D03*
%TO.P,U1,8,Vss*%
%TO.N,GND*%
X121920000Y-127000000D03*
%TO.P,U1,9,A2*%
%TO.N,/U1RX*%
X121920000Y-129540000D03*
%TO.P,U1,10,A3*%
%TO.N,/A3*%
X121920000Y-132080000D03*
%TO.P,U1,11,B4*%
%TO.N,/GREEN*%
X121920000Y-134620000D03*
%TO.P,U1,12,A4*%
%TO.N,/USER*%
X121920000Y-137160000D03*
%TO.P,U1,13,Vdd*%
%TO.N,+3.3V*%
X121920000Y-139700000D03*
%TO.P,U1,14,B5*%
%TO.N,/YELLOW*%
X121920000Y-142240000D03*
%TO.P,U1,15,B6*%
%TO.N,/B6*%
X129540000Y-142240000D03*
%TO.P,U1,16,B7*%
%TO.N,/B7*%
X129540000Y-139700000D03*
%TO.P,U1,17,B8*%
%TO.N,/B8*%
X129540000Y-137160000D03*
%TO.P,U1,18,B9*%
%TO.N,/B9*%
X129540000Y-134620000D03*
%TO.P,U1,19,Vss*%
%TO.N,GND*%
X129540000Y-132080000D03*
%TO.P,U1,20,Vcap*%
%TO.N,Net-(U1-Vcap)*%
X129540000Y-129540000D03*
%TO.P,U1,21,B10*%
%TO.N,/B10*%
X129540000Y-127000000D03*
%TO.P,U1,22,B11*%
%TO.N,/B11*%
X129540000Y-124460000D03*
%TO.P,U1,23,B12*%
%TO.N,/B12*%
X129540000Y-121920000D03*
%TO.P,U1,24,B13*%
%TO.N,/B13*%
X129540000Y-119380000D03*
%TO.P,U1,25,B14*%
%TO.N,/B14*%
X129540000Y-116840000D03*
%TO.P,U1,26,B15*%
%TO.N,/B15*%
X129540000Y-114300000D03*
%TO.P,U1,27,AVss*%
%TO.N,GND*%
X129540000Y-111760000D03*
%TO.P,U1,28,AVdd*%
%TO.N,+3.3V*%
X129540000Y-109220000D03*
%TD*%
D16*
%TO.P,D3,1,K*%
%TO.N,Net-(D3-K)*%
X139714851Y-111743498D03*
D17*
%TO.P,D3,2,A*%
%TO.N,+3.3V*%
X139714851Y-109203498D03*
%TD*%
D11*
%TO.P,J2,1,Pin_1*%
%TO.N,Net-(J2-Pin_1)*%
X101600000Y-101600000D03*
D12*
%TO.P,J2,2,Pin_2*%
%TO.N,GND*%
X101600000Y-104140000D03*
%TD*%
D13*
%TO.P,C1,1*%
%TO.N,/Vin*%
X139620000Y-129540000D03*
%TO.P,C1,2*%
%TO.N,GND*%
X134620000Y-129540000D03*
%TD*%
%TO.P,R4,1*%
%TO.N,Net-(D2-K)*%
X134620000Y-142240000D03*
D18*
%TO.P,R4,2*%
%TO.N,/YELLOW*%
X134620000Y-134620000D03*
%TD*%
D11*
%TO.P,SW1,1,1*%
%TO.N,GND*%
X112697492Y-144780000D03*
D12*
%TO.P,SW1,2,2*%
%TO.N,/MCLR*%
X112697492Y-139700000D03*
%TD*%
D20*
%TO.N,/U1RX*%
X116840000Y-104140000D03*
X124460000Y-106680000D03*
X124460000Y-101600000D03*
X111760000Y-101600000D03*
%TO.N,/YELLOW*%
X132080000Y-137884500D03*
%TO.N,+3.3V*%
X114300000Y-139700000D03*
%TO.N,/MCLR*%
X116840000Y-111035500D03*
X116840000Y-134620000D03*
%TO.N,+3.3V*%
X127000000Y-106680000D03*
X106680000Y-121920000D03*
X110054549Y-109370049D03*
X121920000Y-103444862D03*
X121920000Y-106680000D03*
X106680000Y-114300000D03*
%TO.N,/B6*%
X114300000Y-147320000D03*
%TO.N,/YELLOW*%
X106680000Y-129897200D03*
%TO.N,/Vin*%
X137160000Y-104140000D03*
%TO.N,/U1TX*%
X116840000Y-121920000D03*
%TO.N,/Vin*%
X104140000Y-109220000D03*
%TO.N,/A3*%
X119380000Y-132080000D03*
X119380000Y-124460000D03*
%TO.N,+3.3V*%
X114300000Y-137160000D03*
%TO.N,Net-(D1-K)*%
X134620000Y-147320000D03*
X134620000Y-144780000D03*
%TO.N,Net-(D2-K)*%
X137160000Y-142240000D03*
%TO.N,/Vin*%
X142240000Y-129540000D03*
%TO.N,Net-(D3-K)*%
X142240000Y-111760000D03*
%TD*%
D21*
%TO.N,/U1RX*%
X118501701Y-104140000D02*
X116840000Y-104140000D01*
X124460000Y-127000000D02*
X124460000Y-106680000D01*
X124460000Y-101600000D02*
X121041701Y-101600000D01*
X121041701Y-101600000D02*
X118501701Y-104140000D01*
X121920000Y-129540000D02*
X124460000Y-127000000D01*
%TO.N,/YELLOW*%
X131679500Y-138285000D02*
X132080000Y-137884500D01*
X125875000Y-138285000D02*
X131679500Y-138285000D01*
X121920000Y-142240000D02*
X125875000Y-138285000D01*
%TO.N,+3.3V*%
X137411481Y-145819146D02*
X131138432Y-145819146D01*
X131138432Y-145819146D02*
X131136782Y-145820796D01*
X114451735Y-139548265D02*
X114300000Y-139700000D01*
X117913237Y-139548265D02*
X114451735Y-139548265D01*
%TO.N,/MCLR*%
X121920000Y-109220000D02*
X120104500Y-111035500D01*
X116840000Y-134620000D02*
X116840000Y-135645305D01*
X120104500Y-111035500D02*
X116840000Y-111035500D01*
X116840000Y-135645305D02*
X112785305Y-139700000D01*
X112785305Y-139700000D02*
X112697492Y-139700000D01*
%TO.N,+3.3V*%
X129540000Y-109220000D02*
X127000000Y-106680000D01*
X126680638Y-103021303D02*
X122343559Y-103021303D01*
X122343559Y-103021303D02*
X121920000Y-103444862D01*
X109300000Y-121920000D02*
X106680000Y-121920000D01*
X119229951Y-109370049D02*
X110054549Y-109370049D01*
X121920000Y-106680000D02*
X119229951Y-109370049D01*
X109300000Y-114300000D02*
X106680000Y-114300000D01*
%TO.N,/B6*%
X104140000Y-147320000D02*
X114300000Y-147320000D01*
X101600000Y-132080000D02*
X104140000Y-134620000D01*
X104140000Y-134620000D02*
X104140000Y-147320000D01*
%TO.N,/YELLOW*%
X101957200Y-129897200D02*
X106680000Y-129897200D01*
X101600000Y-129540000D02*
X101957200Y-129897200D01*
%TO.N,/Vin*%
X136041303Y-103021303D02*
X137160000Y-104140000D01*
X129220638Y-103021303D02*
X136041303Y-103021303D01*
X129220638Y-103021303D02*
X129220638Y-104169362D01*
X115665000Y-107855000D02*
X112895000Y-107855000D01*
X129220638Y-104169362D02*
X119350638Y-104169362D01*
X119350638Y-104169362D02*
X115665000Y-107855000D01*
X112895000Y-107855000D02*
X111720000Y-106680000D01*
%TO.N,+5V*%
X114220000Y-106680000D02*
X114220000Y-101680000D01*
X114220000Y-101680000D02*
X114300000Y-101600000D01*
%TO.N,/U1TX*%
X119380000Y-121920000D02*
X116840000Y-121920000D01*
X121920000Y-124460000D02*
X119380000Y-121920000D01*
%TO.N,/Vin*%
X109180000Y-109220000D02*
X104140000Y-109220000D01*
X111720000Y-106680000D02*
X109180000Y-109220000D01*
%TO.N,Net-(J2-Pin_1)*%
X101600000Y-101600000D02*
X104140000Y-101600000D01*
X104140000Y-101600000D02*
X109220000Y-106680000D01*
%TO.N,Net-(U1-Vcap)*%
X129540000Y-129540000D02*
X128415000Y-130665000D01*
X114720936Y-126922700D02*
X110379945Y-126922700D01*
X128415000Y-130665000D02*
X118463236Y-130665000D01*
X118463236Y-130665000D02*
X114720936Y-126922700D01*
X110379945Y-126922700D02*
X109254945Y-128047700D01*
%TO.N,/GREEN*%
X121920000Y-134620000D02*
X123045000Y-135745000D01*
X138575000Y-135745000D02*
X139700000Y-134620000D01*
X123045000Y-135745000D02*
X138575000Y-135745000D01*
X115341330Y-129172700D02*
X103772700Y-129172700D01*
X120788630Y-134620000D02*
X115341330Y-129172700D01*
X103772700Y-129172700D02*
X101600000Y-127000000D01*
X121920000Y-134620000D02*
X120788630Y-134620000D01*
%TO.N,/A3*%
X101600000Y-124460000D02*
X119380000Y-124460000D01*
X119380000Y-132080000D02*
X121920000Y-132080000D01*
%TO.N,/B2*%
X101600000Y-121920000D02*
X102725000Y-120795000D01*
X102725000Y-120795000D02*
X120795000Y-120795000D01*
X120795000Y-120795000D02*
X121920000Y-121920000D01*
%TO.N,/B1*%
X101600000Y-119380000D02*
X121920000Y-119380000D01*
%TO.N,/B0*%
X101600000Y-116840000D02*
X121920000Y-116840000D01*
%TO.N,/A1*%
X101600000Y-114300000D02*
X102725000Y-113175000D01*
X102725000Y-113175000D02*
X120795000Y-113175000D01*
X120795000Y-113175000D02*
X121920000Y-114300000D01*
%TO.N,/A0*%
X101600000Y-111760000D02*
X121920000Y-111760000D01*
%TO.N,+3.3V*%
X125730000Y-147320000D02*
X129637578Y-147320000D01*
X129637578Y-147320000D02*
X131136782Y-145820796D01*
X125730000Y-147320000D02*
X121920000Y-147320000D01*
X121920000Y-147320000D02*
X117913237Y-143313237D01*
X117913237Y-143313237D02*
X117913237Y-139548265D01*
%TO.N,/MCLR*%
X118110000Y-147320000D02*
X118110000Y-145112508D01*
X118110000Y-145112508D02*
X112697492Y-139700000D01*
%TO.N,+3.3V*%
X114300000Y-134620000D02*
X114300000Y-137160000D01*
%TO.N,/USER*%
X106680000Y-139700000D02*
X106680000Y-134620000D01*
X121920000Y-137160000D02*
X116840000Y-132080000D01*
X116840000Y-132080000D02*
X106680000Y-132080000D01*
X106680000Y-132080000D02*
X106680000Y-134620000D01*
%TO.N,+3.3V*%
X121920000Y-139700000D02*
X118064972Y-139700000D01*
X118064972Y-139700000D02*
X117913237Y-139548265D01*
X147320000Y-139700000D02*
X141200854Y-145819146D01*
X141200854Y-145819146D02*
X137411481Y-145819146D01*
%TO.N,Net-(D1-K)*%
X139700000Y-142240000D02*
X138568630Y-142240000D01*
X138568630Y-142240000D02*
X136028630Y-144780000D01*
X136028630Y-144780000D02*
X134620000Y-144780000D01*
X134620000Y-147320000D02*
X133579204Y-148360796D01*
X133579204Y-148360796D02*
X131136782Y-148360796D01*
%TO.N,Net-(D2-K)*%
X134620000Y-142240000D02*
X137160000Y-142240000D01*
%TO.N,/Vin*%
X139620000Y-129540000D02*
X142240000Y-129540000D01*
%TO.N,Net-(D3-K)*%
X142223498Y-111743498D02*
X142240000Y-111760000D01*
X139714851Y-111743498D02*
X142223498Y-111743498D01*
%TO.N,/B14*%
X129540000Y-116840000D02*
X130339999Y-116040001D01*
X130339999Y-116040001D02*
X146520001Y-116040001D01*
X146520001Y-116040001D02*
X147320000Y-116840000D01*
%TO.N,/B15*%
X129540000Y-114300000D02*
X147320000Y-114300000D01*
%TO.N,+3.3V*%
X129540000Y-109220000D02*
X139698349Y-109220000D01*
X139698349Y-109220000D02*
X139714851Y-109203498D01*
X129540000Y-109220000D02*
X133064150Y-109220000D01*
X133064150Y-109220000D02*
X133114339Y-109169811D01*
%TO.N,/B7*%
X129540000Y-139700000D02*
X142240000Y-139700000D01*
X142240000Y-139700000D02*
X147320000Y-134620000D01*
%TO.N,/B8*%
X129540000Y-137160000D02*
X142240000Y-137160000D01*
X142240000Y-137160000D02*
X147320000Y-132080000D01*
%TO.N,/B9*%
X129540000Y-134620000D02*
X130665000Y-133495000D01*
X130665000Y-133495000D02*
X143365000Y-133495000D01*
X143365000Y-133495000D02*
X147320000Y-129540000D01*
%TO.N,/B10*%
X129540000Y-127000000D02*
X147320000Y-127000000D01*
%TO.N,/B11*%
X129540000Y-124460000D02*
X147320000Y-124460000D01*
%TO.N,/B12*%
X129540000Y-121920000D02*
X147320000Y-121920000D01*
%TO.N,/B13*%
X129540000Y-119380000D02*
X147320000Y-119380000D01*
%TO.N,/USER*%
X121920000Y-137160000D02*
X121920000Y-137248891D01*
%TD*%
D22*
X100000000Y-100000000D02*
X150000000Y-100000000D01*
X150000000Y-150000000D01*
X100000000Y-150000000D01*
X100000000Y-100000000D01*
M02*
