%TF.GenerationSoftware,KiCad,Pcbnew,7.0.1-0*%
%TF.CreationDate,2023-04-14T11:03:42-05:00*%
%TF.ProjectId,HW4,4857342e-6b69-4636-9164-5f7063625858,rev?*%
%TF.SameCoordinates,Original*%
%TF.FileFunction,Legend,Top*%
%TF.FilePolarity,Positive*%
%FSLAX46Y46*%
G04 Gerber Fmt 4.6, Leading zero omitted, Abs format (unit mm)*
G04 Created by KiCad (PCBNEW 7.0.1-0) date 2023-04-14 11:03:42*
%MOMM*%
%LPD*%
G01*
G04 APERTURE LIST*
%ADD10C,0.100000*%
%ADD11C,0.150000*%
%ADD12C,0.400000*%
%ADD13C,0.120000*%
%TA.AperFunction,Profile*%
%ADD14C,0.100000*%
%TD*%
G04 APERTURE END LIST*
D10*
%TO.C,S1*%
X112481904Y-108265000D02*
X112339047Y-108217380D01*
X112339047Y-108217380D02*
X112100952Y-108217380D01*
X112100952Y-108217380D02*
X112005714Y-108265000D01*
X112005714Y-108265000D02*
X111958095Y-108312619D01*
X111958095Y-108312619D02*
X111910476Y-108407857D01*
X111910476Y-108407857D02*
X111910476Y-108503095D01*
X111910476Y-108503095D02*
X111958095Y-108598333D01*
X111958095Y-108598333D02*
X112005714Y-108645952D01*
X112005714Y-108645952D02*
X112100952Y-108693571D01*
X112100952Y-108693571D02*
X112291428Y-108741190D01*
X112291428Y-108741190D02*
X112386666Y-108788809D01*
X112386666Y-108788809D02*
X112434285Y-108836428D01*
X112434285Y-108836428D02*
X112481904Y-108931666D01*
X112481904Y-108931666D02*
X112481904Y-109026904D01*
X112481904Y-109026904D02*
X112434285Y-109122142D01*
X112434285Y-109122142D02*
X112386666Y-109169761D01*
X112386666Y-109169761D02*
X112291428Y-109217380D01*
X112291428Y-109217380D02*
X112053333Y-109217380D01*
X112053333Y-109217380D02*
X111910476Y-109169761D01*
X110958095Y-108217380D02*
X111529523Y-108217380D01*
X111243809Y-108217380D02*
X111243809Y-109217380D01*
X111243809Y-109217380D02*
X111339047Y-109074523D01*
X111339047Y-109074523D02*
X111434285Y-108979285D01*
X111434285Y-108979285D02*
X111529523Y-108931666D01*
D11*
%TO.C,SW2*%
X105346667Y-147965000D02*
X105489524Y-148012619D01*
X105489524Y-148012619D02*
X105727619Y-148012619D01*
X105727619Y-148012619D02*
X105822857Y-147965000D01*
X105822857Y-147965000D02*
X105870476Y-147917380D01*
X105870476Y-147917380D02*
X105918095Y-147822142D01*
X105918095Y-147822142D02*
X105918095Y-147726904D01*
X105918095Y-147726904D02*
X105870476Y-147631666D01*
X105870476Y-147631666D02*
X105822857Y-147584047D01*
X105822857Y-147584047D02*
X105727619Y-147536428D01*
X105727619Y-147536428D02*
X105537143Y-147488809D01*
X105537143Y-147488809D02*
X105441905Y-147441190D01*
X105441905Y-147441190D02*
X105394286Y-147393571D01*
X105394286Y-147393571D02*
X105346667Y-147298333D01*
X105346667Y-147298333D02*
X105346667Y-147203095D01*
X105346667Y-147203095D02*
X105394286Y-147107857D01*
X105394286Y-147107857D02*
X105441905Y-147060238D01*
X105441905Y-147060238D02*
X105537143Y-147012619D01*
X105537143Y-147012619D02*
X105775238Y-147012619D01*
X105775238Y-147012619D02*
X105918095Y-147060238D01*
X106251429Y-147012619D02*
X106489524Y-148012619D01*
X106489524Y-148012619D02*
X106680000Y-147298333D01*
X106680000Y-147298333D02*
X106870476Y-148012619D01*
X106870476Y-148012619D02*
X107108572Y-147012619D01*
X107441905Y-147107857D02*
X107489524Y-147060238D01*
X107489524Y-147060238D02*
X107584762Y-147012619D01*
X107584762Y-147012619D02*
X107822857Y-147012619D01*
X107822857Y-147012619D02*
X107918095Y-147060238D01*
X107918095Y-147060238D02*
X107965714Y-147107857D01*
X107965714Y-147107857D02*
X108013333Y-147203095D01*
X108013333Y-147203095D02*
X108013333Y-147298333D01*
X108013333Y-147298333D02*
X107965714Y-147441190D01*
X107965714Y-147441190D02*
X107394286Y-148012619D01*
X107394286Y-148012619D02*
X108013333Y-148012619D01*
%TO.C,C5*%
X135781719Y-110586477D02*
X135829339Y-110634096D01*
X135829339Y-110634096D02*
X135876958Y-110776953D01*
X135876958Y-110776953D02*
X135876958Y-110872191D01*
X135876958Y-110872191D02*
X135829339Y-111015048D01*
X135829339Y-111015048D02*
X135734100Y-111110286D01*
X135734100Y-111110286D02*
X135638862Y-111157905D01*
X135638862Y-111157905D02*
X135448386Y-111205524D01*
X135448386Y-111205524D02*
X135305529Y-111205524D01*
X135305529Y-111205524D02*
X135115053Y-111157905D01*
X135115053Y-111157905D02*
X135019815Y-111110286D01*
X135019815Y-111110286D02*
X134924577Y-111015048D01*
X134924577Y-111015048D02*
X134876958Y-110872191D01*
X134876958Y-110872191D02*
X134876958Y-110776953D01*
X134876958Y-110776953D02*
X134924577Y-110634096D01*
X134924577Y-110634096D02*
X134972196Y-110586477D01*
X134876958Y-109681715D02*
X134876958Y-110157905D01*
X134876958Y-110157905D02*
X135353148Y-110205524D01*
X135353148Y-110205524D02*
X135305529Y-110157905D01*
X135305529Y-110157905D02*
X135257910Y-110062667D01*
X135257910Y-110062667D02*
X135257910Y-109824572D01*
X135257910Y-109824572D02*
X135305529Y-109729334D01*
X135305529Y-109729334D02*
X135353148Y-109681715D01*
X135353148Y-109681715D02*
X135448386Y-109634096D01*
X135448386Y-109634096D02*
X135686481Y-109634096D01*
X135686481Y-109634096D02*
X135781719Y-109681715D01*
X135781719Y-109681715D02*
X135829339Y-109729334D01*
X135829339Y-109729334D02*
X135876958Y-109824572D01*
X135876958Y-109824572D02*
X135876958Y-110062667D01*
X135876958Y-110062667D02*
X135829339Y-110157905D01*
X135829339Y-110157905D02*
X135781719Y-110205524D01*
%TO.C,J4*%
X146986666Y-110992619D02*
X146986666Y-111706904D01*
X146986666Y-111706904D02*
X146939047Y-111849761D01*
X146939047Y-111849761D02*
X146843809Y-111945000D01*
X146843809Y-111945000D02*
X146700952Y-111992619D01*
X146700952Y-111992619D02*
X146605714Y-111992619D01*
X147891428Y-111325952D02*
X147891428Y-111992619D01*
X147653333Y-110945000D02*
X147415238Y-111659285D01*
X147415238Y-111659285D02*
X148034285Y-111659285D01*
%TO.C,J3*%
X103372619Y-101933333D02*
X104086904Y-101933333D01*
X104086904Y-101933333D02*
X104229761Y-101980952D01*
X104229761Y-101980952D02*
X104325000Y-102076190D01*
X104325000Y-102076190D02*
X104372619Y-102219047D01*
X104372619Y-102219047D02*
X104372619Y-102314285D01*
X103372619Y-101552380D02*
X103372619Y-100933333D01*
X103372619Y-100933333D02*
X103753571Y-101266666D01*
X103753571Y-101266666D02*
X103753571Y-101123809D01*
X103753571Y-101123809D02*
X103801190Y-101028571D01*
X103801190Y-101028571D02*
X103848809Y-100980952D01*
X103848809Y-100980952D02*
X103944047Y-100933333D01*
X103944047Y-100933333D02*
X104182142Y-100933333D01*
X104182142Y-100933333D02*
X104277380Y-100980952D01*
X104277380Y-100980952D02*
X104325000Y-101028571D01*
X104325000Y-101028571D02*
X104372619Y-101123809D01*
X104372619Y-101123809D02*
X104372619Y-101409523D01*
X104372619Y-101409523D02*
X104325000Y-101504761D01*
X104325000Y-101504761D02*
X104277380Y-101552380D01*
%TO.C,U2*%
X127108733Y-98923922D02*
X127108733Y-99733445D01*
X127108733Y-99733445D02*
X127156352Y-99828683D01*
X127156352Y-99828683D02*
X127203971Y-99876303D01*
X127203971Y-99876303D02*
X127299209Y-99923922D01*
X127299209Y-99923922D02*
X127489685Y-99923922D01*
X127489685Y-99923922D02*
X127584923Y-99876303D01*
X127584923Y-99876303D02*
X127632542Y-99828683D01*
X127632542Y-99828683D02*
X127680161Y-99733445D01*
X127680161Y-99733445D02*
X127680161Y-98923922D01*
X128108733Y-99019160D02*
X128156352Y-98971541D01*
X128156352Y-98971541D02*
X128251590Y-98923922D01*
X128251590Y-98923922D02*
X128489685Y-98923922D01*
X128489685Y-98923922D02*
X128584923Y-98971541D01*
X128584923Y-98971541D02*
X128632542Y-99019160D01*
X128632542Y-99019160D02*
X128680161Y-99114398D01*
X128680161Y-99114398D02*
X128680161Y-99209636D01*
X128680161Y-99209636D02*
X128632542Y-99352493D01*
X128632542Y-99352493D02*
X128061114Y-99923922D01*
X128061114Y-99923922D02*
X128680161Y-99923922D01*
%TO.C,C3*%
X111633333Y-119437380D02*
X111585714Y-119485000D01*
X111585714Y-119485000D02*
X111442857Y-119532619D01*
X111442857Y-119532619D02*
X111347619Y-119532619D01*
X111347619Y-119532619D02*
X111204762Y-119485000D01*
X111204762Y-119485000D02*
X111109524Y-119389761D01*
X111109524Y-119389761D02*
X111061905Y-119294523D01*
X111061905Y-119294523D02*
X111014286Y-119104047D01*
X111014286Y-119104047D02*
X111014286Y-118961190D01*
X111014286Y-118961190D02*
X111061905Y-118770714D01*
X111061905Y-118770714D02*
X111109524Y-118675476D01*
X111109524Y-118675476D02*
X111204762Y-118580238D01*
X111204762Y-118580238D02*
X111347619Y-118532619D01*
X111347619Y-118532619D02*
X111442857Y-118532619D01*
X111442857Y-118532619D02*
X111585714Y-118580238D01*
X111585714Y-118580238D02*
X111633333Y-118627857D01*
X111966667Y-118532619D02*
X112585714Y-118532619D01*
X112585714Y-118532619D02*
X112252381Y-118913571D01*
X112252381Y-118913571D02*
X112395238Y-118913571D01*
X112395238Y-118913571D02*
X112490476Y-118961190D01*
X112490476Y-118961190D02*
X112538095Y-119008809D01*
X112538095Y-119008809D02*
X112585714Y-119104047D01*
X112585714Y-119104047D02*
X112585714Y-119342142D01*
X112585714Y-119342142D02*
X112538095Y-119437380D01*
X112538095Y-119437380D02*
X112490476Y-119485000D01*
X112490476Y-119485000D02*
X112395238Y-119532619D01*
X112395238Y-119532619D02*
X112109524Y-119532619D01*
X112109524Y-119532619D02*
X112014286Y-119485000D01*
X112014286Y-119485000D02*
X111966667Y-119437380D01*
%TO.C,C2*%
X111633333Y-111817380D02*
X111585714Y-111865000D01*
X111585714Y-111865000D02*
X111442857Y-111912619D01*
X111442857Y-111912619D02*
X111347619Y-111912619D01*
X111347619Y-111912619D02*
X111204762Y-111865000D01*
X111204762Y-111865000D02*
X111109524Y-111769761D01*
X111109524Y-111769761D02*
X111061905Y-111674523D01*
X111061905Y-111674523D02*
X111014286Y-111484047D01*
X111014286Y-111484047D02*
X111014286Y-111341190D01*
X111014286Y-111341190D02*
X111061905Y-111150714D01*
X111061905Y-111150714D02*
X111109524Y-111055476D01*
X111109524Y-111055476D02*
X111204762Y-110960238D01*
X111204762Y-110960238D02*
X111347619Y-110912619D01*
X111347619Y-110912619D02*
X111442857Y-110912619D01*
X111442857Y-110912619D02*
X111585714Y-110960238D01*
X111585714Y-110960238D02*
X111633333Y-111007857D01*
X112014286Y-111007857D02*
X112061905Y-110960238D01*
X112061905Y-110960238D02*
X112157143Y-110912619D01*
X112157143Y-110912619D02*
X112395238Y-110912619D01*
X112395238Y-110912619D02*
X112490476Y-110960238D01*
X112490476Y-110960238D02*
X112538095Y-111007857D01*
X112538095Y-111007857D02*
X112585714Y-111103095D01*
X112585714Y-111103095D02*
X112585714Y-111198333D01*
X112585714Y-111198333D02*
X112538095Y-111341190D01*
X112538095Y-111341190D02*
X111966667Y-111912619D01*
X111966667Y-111912619D02*
X112585714Y-111912619D01*
%TO.C,D1*%
X128639401Y-147828890D02*
X127639401Y-147828890D01*
X127639401Y-147828890D02*
X127639401Y-147590795D01*
X127639401Y-147590795D02*
X127687020Y-147447938D01*
X127687020Y-147447938D02*
X127782258Y-147352700D01*
X127782258Y-147352700D02*
X127877496Y-147305081D01*
X127877496Y-147305081D02*
X128067972Y-147257462D01*
X128067972Y-147257462D02*
X128210829Y-147257462D01*
X128210829Y-147257462D02*
X128401305Y-147305081D01*
X128401305Y-147305081D02*
X128496543Y-147352700D01*
X128496543Y-147352700D02*
X128591782Y-147447938D01*
X128591782Y-147447938D02*
X128639401Y-147590795D01*
X128639401Y-147590795D02*
X128639401Y-147828890D01*
X128639401Y-146305081D02*
X128639401Y-146876509D01*
X128639401Y-146590795D02*
X127639401Y-146590795D01*
X127639401Y-146590795D02*
X127782258Y-146686033D01*
X127782258Y-146686033D02*
X127877496Y-146781271D01*
X127877496Y-146781271D02*
X127925115Y-146876509D01*
%TO.C,R1*%
X121753333Y-150152619D02*
X121420000Y-149676428D01*
X121181905Y-150152619D02*
X121181905Y-149152619D01*
X121181905Y-149152619D02*
X121562857Y-149152619D01*
X121562857Y-149152619D02*
X121658095Y-149200238D01*
X121658095Y-149200238D02*
X121705714Y-149247857D01*
X121705714Y-149247857D02*
X121753333Y-149343095D01*
X121753333Y-149343095D02*
X121753333Y-149485952D01*
X121753333Y-149485952D02*
X121705714Y-149581190D01*
X121705714Y-149581190D02*
X121658095Y-149628809D01*
X121658095Y-149628809D02*
X121562857Y-149676428D01*
X121562857Y-149676428D02*
X121181905Y-149676428D01*
X122705714Y-150152619D02*
X122134286Y-150152619D01*
X122420000Y-150152619D02*
X122420000Y-149152619D01*
X122420000Y-149152619D02*
X122324762Y-149295476D01*
X122324762Y-149295476D02*
X122229524Y-149390714D01*
X122229524Y-149390714D02*
X122134286Y-149438333D01*
%TO.C,D2*%
X134914100Y-147827240D02*
X133914100Y-147827240D01*
X133914100Y-147827240D02*
X133914100Y-147589145D01*
X133914100Y-147589145D02*
X133961719Y-147446288D01*
X133961719Y-147446288D02*
X134056957Y-147351050D01*
X134056957Y-147351050D02*
X134152195Y-147303431D01*
X134152195Y-147303431D02*
X134342671Y-147255812D01*
X134342671Y-147255812D02*
X134485528Y-147255812D01*
X134485528Y-147255812D02*
X134676004Y-147303431D01*
X134676004Y-147303431D02*
X134771242Y-147351050D01*
X134771242Y-147351050D02*
X134866481Y-147446288D01*
X134866481Y-147446288D02*
X134914100Y-147589145D01*
X134914100Y-147589145D02*
X134914100Y-147827240D01*
X134009338Y-146874859D02*
X133961719Y-146827240D01*
X133961719Y-146827240D02*
X133914100Y-146732002D01*
X133914100Y-146732002D02*
X133914100Y-146493907D01*
X133914100Y-146493907D02*
X133961719Y-146398669D01*
X133961719Y-146398669D02*
X134009338Y-146351050D01*
X134009338Y-146351050D02*
X134104576Y-146303431D01*
X134104576Y-146303431D02*
X134199814Y-146303431D01*
X134199814Y-146303431D02*
X134342671Y-146351050D01*
X134342671Y-146351050D02*
X134914100Y-146922478D01*
X134914100Y-146922478D02*
X134914100Y-146303431D01*
%TO.C,J1*%
X101266666Y-108452619D02*
X101266666Y-109166904D01*
X101266666Y-109166904D02*
X101219047Y-109309761D01*
X101219047Y-109309761D02*
X101123809Y-109405000D01*
X101123809Y-109405000D02*
X100980952Y-109452619D01*
X100980952Y-109452619D02*
X100885714Y-109452619D01*
X102266666Y-109452619D02*
X101695238Y-109452619D01*
X101980952Y-109452619D02*
X101980952Y-108452619D01*
X101980952Y-108452619D02*
X101885714Y-108595476D01*
X101885714Y-108595476D02*
X101790476Y-108690714D01*
X101790476Y-108690714D02*
X101695238Y-108738333D01*
%TO.C,C6*%
X111588278Y-125565080D02*
X111540659Y-125612700D01*
X111540659Y-125612700D02*
X111397802Y-125660319D01*
X111397802Y-125660319D02*
X111302564Y-125660319D01*
X111302564Y-125660319D02*
X111159707Y-125612700D01*
X111159707Y-125612700D02*
X111064469Y-125517461D01*
X111064469Y-125517461D02*
X111016850Y-125422223D01*
X111016850Y-125422223D02*
X110969231Y-125231747D01*
X110969231Y-125231747D02*
X110969231Y-125088890D01*
X110969231Y-125088890D02*
X111016850Y-124898414D01*
X111016850Y-124898414D02*
X111064469Y-124803176D01*
X111064469Y-124803176D02*
X111159707Y-124707938D01*
X111159707Y-124707938D02*
X111302564Y-124660319D01*
X111302564Y-124660319D02*
X111397802Y-124660319D01*
X111397802Y-124660319D02*
X111540659Y-124707938D01*
X111540659Y-124707938D02*
X111588278Y-124755557D01*
X112445421Y-124660319D02*
X112254945Y-124660319D01*
X112254945Y-124660319D02*
X112159707Y-124707938D01*
X112159707Y-124707938D02*
X112112088Y-124755557D01*
X112112088Y-124755557D02*
X112016850Y-124898414D01*
X112016850Y-124898414D02*
X111969231Y-125088890D01*
X111969231Y-125088890D02*
X111969231Y-125469842D01*
X111969231Y-125469842D02*
X112016850Y-125565080D01*
X112016850Y-125565080D02*
X112064469Y-125612700D01*
X112064469Y-125612700D02*
X112159707Y-125660319D01*
X112159707Y-125660319D02*
X112350183Y-125660319D01*
X112350183Y-125660319D02*
X112445421Y-125612700D01*
X112445421Y-125612700D02*
X112493040Y-125565080D01*
X112493040Y-125565080D02*
X112540659Y-125469842D01*
X112540659Y-125469842D02*
X112540659Y-125231747D01*
X112540659Y-125231747D02*
X112493040Y-125136509D01*
X112493040Y-125136509D02*
X112445421Y-125088890D01*
X112445421Y-125088890D02*
X112350183Y-125041271D01*
X112350183Y-125041271D02*
X112159707Y-125041271D01*
X112159707Y-125041271D02*
X112064469Y-125088890D01*
X112064469Y-125088890D02*
X112016850Y-125136509D01*
X112016850Y-125136509D02*
X111969231Y-125231747D01*
%TO.C,C4*%
X115980617Y-138464931D02*
X116028237Y-138512550D01*
X116028237Y-138512550D02*
X116075856Y-138655407D01*
X116075856Y-138655407D02*
X116075856Y-138750645D01*
X116075856Y-138750645D02*
X116028237Y-138893502D01*
X116028237Y-138893502D02*
X115932998Y-138988740D01*
X115932998Y-138988740D02*
X115837760Y-139036359D01*
X115837760Y-139036359D02*
X115647284Y-139083978D01*
X115647284Y-139083978D02*
X115504427Y-139083978D01*
X115504427Y-139083978D02*
X115313951Y-139036359D01*
X115313951Y-139036359D02*
X115218713Y-138988740D01*
X115218713Y-138988740D02*
X115123475Y-138893502D01*
X115123475Y-138893502D02*
X115075856Y-138750645D01*
X115075856Y-138750645D02*
X115075856Y-138655407D01*
X115075856Y-138655407D02*
X115123475Y-138512550D01*
X115123475Y-138512550D02*
X115171094Y-138464931D01*
X115409189Y-137607788D02*
X116075856Y-137607788D01*
X115028237Y-137845883D02*
X115742522Y-138083978D01*
X115742522Y-138083978D02*
X115742522Y-137464931D01*
%TO.C,R5*%
X138046408Y-120488724D02*
X137713075Y-120012533D01*
X137474980Y-120488724D02*
X137474980Y-119488724D01*
X137474980Y-119488724D02*
X137855932Y-119488724D01*
X137855932Y-119488724D02*
X137951170Y-119536343D01*
X137951170Y-119536343D02*
X137998789Y-119583962D01*
X137998789Y-119583962D02*
X138046408Y-119679200D01*
X138046408Y-119679200D02*
X138046408Y-119822057D01*
X138046408Y-119822057D02*
X137998789Y-119917295D01*
X137998789Y-119917295D02*
X137951170Y-119964914D01*
X137951170Y-119964914D02*
X137855932Y-120012533D01*
X137855932Y-120012533D02*
X137474980Y-120012533D01*
X138951170Y-119488724D02*
X138474980Y-119488724D01*
X138474980Y-119488724D02*
X138427361Y-119964914D01*
X138427361Y-119964914D02*
X138474980Y-119917295D01*
X138474980Y-119917295D02*
X138570218Y-119869676D01*
X138570218Y-119869676D02*
X138808313Y-119869676D01*
X138808313Y-119869676D02*
X138903551Y-119917295D01*
X138903551Y-119917295D02*
X138951170Y-119964914D01*
X138951170Y-119964914D02*
X138998789Y-120060152D01*
X138998789Y-120060152D02*
X138998789Y-120298247D01*
X138998789Y-120298247D02*
X138951170Y-120393485D01*
X138951170Y-120393485D02*
X138903551Y-120441105D01*
X138903551Y-120441105D02*
X138808313Y-120488724D01*
X138808313Y-120488724D02*
X138570218Y-120488724D01*
X138570218Y-120488724D02*
X138474980Y-120441105D01*
X138474980Y-120441105D02*
X138427361Y-120393485D01*
%TO.C,R2*%
X110323333Y-137452619D02*
X109990000Y-136976428D01*
X109751905Y-137452619D02*
X109751905Y-136452619D01*
X109751905Y-136452619D02*
X110132857Y-136452619D01*
X110132857Y-136452619D02*
X110228095Y-136500238D01*
X110228095Y-136500238D02*
X110275714Y-136547857D01*
X110275714Y-136547857D02*
X110323333Y-136643095D01*
X110323333Y-136643095D02*
X110323333Y-136785952D01*
X110323333Y-136785952D02*
X110275714Y-136881190D01*
X110275714Y-136881190D02*
X110228095Y-136928809D01*
X110228095Y-136928809D02*
X110132857Y-136976428D01*
X110132857Y-136976428D02*
X109751905Y-136976428D01*
X110704286Y-136547857D02*
X110751905Y-136500238D01*
X110751905Y-136500238D02*
X110847143Y-136452619D01*
X110847143Y-136452619D02*
X111085238Y-136452619D01*
X111085238Y-136452619D02*
X111180476Y-136500238D01*
X111180476Y-136500238D02*
X111228095Y-136547857D01*
X111228095Y-136547857D02*
X111275714Y-136643095D01*
X111275714Y-136643095D02*
X111275714Y-136738333D01*
X111275714Y-136738333D02*
X111228095Y-136881190D01*
X111228095Y-136881190D02*
X110656667Y-137452619D01*
X110656667Y-137452619D02*
X111275714Y-137452619D01*
%TO.C,R3*%
X137792619Y-138596666D02*
X137316428Y-138929999D01*
X137792619Y-139168094D02*
X136792619Y-139168094D01*
X136792619Y-139168094D02*
X136792619Y-138787142D01*
X136792619Y-138787142D02*
X136840238Y-138691904D01*
X136840238Y-138691904D02*
X136887857Y-138644285D01*
X136887857Y-138644285D02*
X136983095Y-138596666D01*
X136983095Y-138596666D02*
X137125952Y-138596666D01*
X137125952Y-138596666D02*
X137221190Y-138644285D01*
X137221190Y-138644285D02*
X137268809Y-138691904D01*
X137268809Y-138691904D02*
X137316428Y-138787142D01*
X137316428Y-138787142D02*
X137316428Y-139168094D01*
X136792619Y-138263332D02*
X136792619Y-137644285D01*
X136792619Y-137644285D02*
X137173571Y-137977618D01*
X137173571Y-137977618D02*
X137173571Y-137834761D01*
X137173571Y-137834761D02*
X137221190Y-137739523D01*
X137221190Y-137739523D02*
X137268809Y-137691904D01*
X137268809Y-137691904D02*
X137364047Y-137644285D01*
X137364047Y-137644285D02*
X137602142Y-137644285D01*
X137602142Y-137644285D02*
X137697380Y-137691904D01*
X137697380Y-137691904D02*
X137745000Y-137739523D01*
X137745000Y-137739523D02*
X137792619Y-137834761D01*
X137792619Y-137834761D02*
X137792619Y-138120475D01*
X137792619Y-138120475D02*
X137745000Y-138215713D01*
X137745000Y-138215713D02*
X137697380Y-138263332D01*
%TO.C,U1*%
X124968095Y-106352619D02*
X124968095Y-107162142D01*
X124968095Y-107162142D02*
X125015714Y-107257380D01*
X125015714Y-107257380D02*
X125063333Y-107305000D01*
X125063333Y-107305000D02*
X125158571Y-107352619D01*
X125158571Y-107352619D02*
X125349047Y-107352619D01*
X125349047Y-107352619D02*
X125444285Y-107305000D01*
X125444285Y-107305000D02*
X125491904Y-107257380D01*
X125491904Y-107257380D02*
X125539523Y-107162142D01*
X125539523Y-107162142D02*
X125539523Y-106352619D01*
X126539523Y-107352619D02*
X125968095Y-107352619D01*
X126253809Y-107352619D02*
X126253809Y-106352619D01*
X126253809Y-106352619D02*
X126158571Y-106495476D01*
X126158571Y-106495476D02*
X126063333Y-106590714D01*
X126063333Y-106590714D02*
X125968095Y-106638333D01*
%TO.C,D3*%
X137217470Y-111211592D02*
X136217470Y-111211592D01*
X136217470Y-111211592D02*
X136217470Y-110973497D01*
X136217470Y-110973497D02*
X136265089Y-110830640D01*
X136265089Y-110830640D02*
X136360327Y-110735402D01*
X136360327Y-110735402D02*
X136455565Y-110687783D01*
X136455565Y-110687783D02*
X136646041Y-110640164D01*
X136646041Y-110640164D02*
X136788898Y-110640164D01*
X136788898Y-110640164D02*
X136979374Y-110687783D01*
X136979374Y-110687783D02*
X137074612Y-110735402D01*
X137074612Y-110735402D02*
X137169851Y-110830640D01*
X137169851Y-110830640D02*
X137217470Y-110973497D01*
X137217470Y-110973497D02*
X137217470Y-111211592D01*
X136217470Y-110306830D02*
X136217470Y-109687783D01*
X136217470Y-109687783D02*
X136598422Y-110021116D01*
X136598422Y-110021116D02*
X136598422Y-109878259D01*
X136598422Y-109878259D02*
X136646041Y-109783021D01*
X136646041Y-109783021D02*
X136693660Y-109735402D01*
X136693660Y-109735402D02*
X136788898Y-109687783D01*
X136788898Y-109687783D02*
X137026993Y-109687783D01*
X137026993Y-109687783D02*
X137122231Y-109735402D01*
X137122231Y-109735402D02*
X137169851Y-109783021D01*
X137169851Y-109783021D02*
X137217470Y-109878259D01*
X137217470Y-109878259D02*
X137217470Y-110163973D01*
X137217470Y-110163973D02*
X137169851Y-110259211D01*
X137169851Y-110259211D02*
X137122231Y-110306830D01*
%TO.C,J2*%
X101266666Y-98292619D02*
X101266666Y-99006904D01*
X101266666Y-99006904D02*
X101219047Y-99149761D01*
X101219047Y-99149761D02*
X101123809Y-99245000D01*
X101123809Y-99245000D02*
X100980952Y-99292619D01*
X100980952Y-99292619D02*
X100885714Y-99292619D01*
X101695238Y-98387857D02*
X101742857Y-98340238D01*
X101742857Y-98340238D02*
X101838095Y-98292619D01*
X101838095Y-98292619D02*
X102076190Y-98292619D01*
X102076190Y-98292619D02*
X102171428Y-98340238D01*
X102171428Y-98340238D02*
X102219047Y-98387857D01*
X102219047Y-98387857D02*
X102266666Y-98483095D01*
X102266666Y-98483095D02*
X102266666Y-98578333D01*
X102266666Y-98578333D02*
X102219047Y-98721190D01*
X102219047Y-98721190D02*
X101647619Y-99292619D01*
X101647619Y-99292619D02*
X102266666Y-99292619D01*
%TO.C,C1*%
X136953333Y-132757380D02*
X136905714Y-132805000D01*
X136905714Y-132805000D02*
X136762857Y-132852619D01*
X136762857Y-132852619D02*
X136667619Y-132852619D01*
X136667619Y-132852619D02*
X136524762Y-132805000D01*
X136524762Y-132805000D02*
X136429524Y-132709761D01*
X136429524Y-132709761D02*
X136381905Y-132614523D01*
X136381905Y-132614523D02*
X136334286Y-132424047D01*
X136334286Y-132424047D02*
X136334286Y-132281190D01*
X136334286Y-132281190D02*
X136381905Y-132090714D01*
X136381905Y-132090714D02*
X136429524Y-131995476D01*
X136429524Y-131995476D02*
X136524762Y-131900238D01*
X136524762Y-131900238D02*
X136667619Y-131852619D01*
X136667619Y-131852619D02*
X136762857Y-131852619D01*
X136762857Y-131852619D02*
X136905714Y-131900238D01*
X136905714Y-131900238D02*
X136953333Y-131947857D01*
X137905714Y-132852619D02*
X137334286Y-132852619D01*
X137620000Y-132852619D02*
X137620000Y-131852619D01*
X137620000Y-131852619D02*
X137524762Y-131995476D01*
X137524762Y-131995476D02*
X137429524Y-132090714D01*
X137429524Y-132090714D02*
X137334286Y-132138333D01*
%TO.C,R4*%
X132712619Y-138596666D02*
X132236428Y-138929999D01*
X132712619Y-139168094D02*
X131712619Y-139168094D01*
X131712619Y-139168094D02*
X131712619Y-138787142D01*
X131712619Y-138787142D02*
X131760238Y-138691904D01*
X131760238Y-138691904D02*
X131807857Y-138644285D01*
X131807857Y-138644285D02*
X131903095Y-138596666D01*
X131903095Y-138596666D02*
X132045952Y-138596666D01*
X132045952Y-138596666D02*
X132141190Y-138644285D01*
X132141190Y-138644285D02*
X132188809Y-138691904D01*
X132188809Y-138691904D02*
X132236428Y-138787142D01*
X132236428Y-138787142D02*
X132236428Y-139168094D01*
X132045952Y-137739523D02*
X132712619Y-137739523D01*
X131665000Y-137977618D02*
X132379285Y-138215713D01*
X132379285Y-138215713D02*
X132379285Y-137596666D01*
%TO.C,SW1*%
X111364159Y-147965000D02*
X111507016Y-148012619D01*
X111507016Y-148012619D02*
X111745111Y-148012619D01*
X111745111Y-148012619D02*
X111840349Y-147965000D01*
X111840349Y-147965000D02*
X111887968Y-147917380D01*
X111887968Y-147917380D02*
X111935587Y-147822142D01*
X111935587Y-147822142D02*
X111935587Y-147726904D01*
X111935587Y-147726904D02*
X111887968Y-147631666D01*
X111887968Y-147631666D02*
X111840349Y-147584047D01*
X111840349Y-147584047D02*
X111745111Y-147536428D01*
X111745111Y-147536428D02*
X111554635Y-147488809D01*
X111554635Y-147488809D02*
X111459397Y-147441190D01*
X111459397Y-147441190D02*
X111411778Y-147393571D01*
X111411778Y-147393571D02*
X111364159Y-147298333D01*
X111364159Y-147298333D02*
X111364159Y-147203095D01*
X111364159Y-147203095D02*
X111411778Y-147107857D01*
X111411778Y-147107857D02*
X111459397Y-147060238D01*
X111459397Y-147060238D02*
X111554635Y-147012619D01*
X111554635Y-147012619D02*
X111792730Y-147012619D01*
X111792730Y-147012619D02*
X111935587Y-147060238D01*
X112268921Y-147012619D02*
X112507016Y-148012619D01*
X112507016Y-148012619D02*
X112697492Y-147298333D01*
X112697492Y-147298333D02*
X112887968Y-148012619D01*
X112887968Y-148012619D02*
X113126064Y-147012619D01*
X114030825Y-148012619D02*
X113459397Y-148012619D01*
X113745111Y-148012619D02*
X113745111Y-147012619D01*
X113745111Y-147012619D02*
X113649873Y-147155476D01*
X113649873Y-147155476D02*
X113554635Y-147250714D01*
X113554635Y-147250714D02*
X113459397Y-147298333D01*
D12*
%TO.C,S1*%
X117720000Y-108680000D02*
X117720000Y-104680000D01*
X117720000Y-104680000D02*
X105720000Y-104680000D01*
X105720000Y-108680000D02*
X117720000Y-108680000D01*
X105720000Y-108680000D02*
X105720000Y-104680000D01*
D13*
%TO.C,SW2*%
X109220000Y-143510000D02*
X109220000Y-138370000D01*
X109220000Y-143510000D02*
X104140000Y-143510000D01*
X109220000Y-138370000D02*
X104140000Y-138370000D01*
X106680000Y-146110000D02*
X105350000Y-146110000D01*
X105350000Y-146110000D02*
X105350000Y-144780000D01*
X104140000Y-143510000D02*
X104140000Y-138370000D01*
%TO.C,C5*%
X134284339Y-108599811D02*
X134039339Y-108599811D01*
X134284339Y-108599811D02*
X134284339Y-112239811D01*
X132189339Y-108599811D02*
X131944339Y-108599811D01*
X131944339Y-108599811D02*
X131944339Y-112239811D01*
X134284339Y-112239811D02*
X134039339Y-112239811D01*
X132189339Y-112239811D02*
X131944339Y-112239811D01*
%TO.C,J4*%
X145990000Y-115570000D02*
X145990000Y-143570000D01*
X145990000Y-115570000D02*
X148650000Y-115570000D01*
X145990000Y-143570000D02*
X148650000Y-143570000D01*
X147320000Y-112970000D02*
X148650000Y-112970000D01*
X148650000Y-112970000D02*
X148650000Y-114300000D01*
X148650000Y-115570000D02*
X148650000Y-143570000D01*
%TO.C,J3*%
X107950000Y-102930000D02*
X120710000Y-102930000D01*
X107950000Y-102930000D02*
X107950000Y-100270000D01*
X120710000Y-102930000D02*
X120710000Y-100270000D01*
X105350000Y-101600000D02*
X105350000Y-100270000D01*
X105350000Y-100270000D02*
X106680000Y-100270000D01*
X107950000Y-100270000D02*
X120710000Y-100270000D01*
%TO.C,U2*%
X125930638Y-104721303D02*
X129780638Y-104721303D01*
X129819249Y-104711425D02*
G75*
G03*
X125930638Y-104721303I-1948611J1690122D01*
G01*
%TO.C,C3*%
X109130000Y-120199000D02*
X109130000Y-120865000D01*
X109130000Y-120199000D02*
X114470000Y-120199000D01*
X109130000Y-122975000D02*
X109130000Y-123641000D01*
X109130000Y-123641000D02*
X114470000Y-123641000D01*
X114470000Y-120199000D02*
X114470000Y-120865000D01*
X114470000Y-122975000D02*
X114470000Y-123641000D01*
%TO.C,C2*%
X109130000Y-112579000D02*
X109130000Y-113245000D01*
X109130000Y-112579000D02*
X114470000Y-112579000D01*
X109130000Y-115355000D02*
X109130000Y-116021000D01*
X109130000Y-116021000D02*
X114470000Y-116021000D01*
X114470000Y-112579000D02*
X114470000Y-113245000D01*
X114470000Y-115355000D02*
X114470000Y-116021000D01*
%TO.C,D1*%
X129900782Y-148650796D02*
X130056782Y-148650796D01*
X132216782Y-148650796D02*
X132372782Y-148650796D01*
X130058174Y-145418462D02*
G75*
G03*
X129901267Y-148650795I1078608J-1672334D01*
G01*
X130056946Y-146049667D02*
G75*
G03*
X130056783Y-148131756I1079836J-1041129D01*
G01*
X132216781Y-148131756D02*
G75*
G03*
X132216618Y-146049667I-1079999J1040960D01*
G01*
X132372297Y-148650795D02*
G75*
G03*
X132215390Y-145418462I-1235515J1559999D01*
G01*
%TO.C,R1*%
X125190000Y-148690000D02*
X118650000Y-148690000D01*
X125190000Y-148360000D02*
X125190000Y-148690000D01*
X125190000Y-146280000D02*
X125190000Y-145950000D01*
X125190000Y-145950000D02*
X118650000Y-145950000D01*
X118650000Y-148690000D02*
X118650000Y-148360000D01*
X118650000Y-145950000D02*
X118650000Y-146280000D01*
%TO.C,D2*%
X136175481Y-148649146D02*
X136331481Y-148649146D01*
X138491481Y-148649146D02*
X138647481Y-148649146D01*
X136332873Y-145416812D02*
G75*
G03*
X136175966Y-148649145I1078608J-1672334D01*
G01*
X136331645Y-146048017D02*
G75*
G03*
X136331482Y-148130106I1079836J-1041129D01*
G01*
X138491480Y-148130106D02*
G75*
G03*
X138491317Y-146048017I-1079999J1040960D01*
G01*
X138646996Y-148649145D02*
G75*
G03*
X138490089Y-145416812I-1235515J1559999D01*
G01*
%TO.C,J1*%
X100270000Y-113030000D02*
X100270000Y-141030000D01*
X100270000Y-113030000D02*
X102930000Y-113030000D01*
X100270000Y-141030000D02*
X102930000Y-141030000D01*
X101600000Y-110430000D02*
X102930000Y-110430000D01*
X102930000Y-110430000D02*
X102930000Y-111760000D01*
X102930000Y-113030000D02*
X102930000Y-141030000D01*
%TO.C,C6*%
X109084945Y-126326700D02*
X109084945Y-126992700D01*
X109084945Y-126326700D02*
X114424945Y-126326700D01*
X109084945Y-129102700D02*
X109084945Y-129768700D01*
X109084945Y-129768700D02*
X114424945Y-129768700D01*
X114424945Y-126326700D02*
X114424945Y-126992700D01*
X114424945Y-129102700D02*
X114424945Y-129768700D01*
%TO.C,C4*%
X116743237Y-140118265D02*
X116988237Y-140118265D01*
X116743237Y-140118265D02*
X116743237Y-136478265D01*
X118838237Y-140118265D02*
X119083237Y-140118265D01*
X119083237Y-140118265D02*
X119083237Y-136478265D01*
X116743237Y-136478265D02*
X116988237Y-136478265D01*
X118838237Y-136478265D02*
X119083237Y-136478265D01*
%TO.C,R5*%
X141483075Y-119026105D02*
X134943075Y-119026105D01*
X141483075Y-118696105D02*
X141483075Y-119026105D01*
X141483075Y-116616105D02*
X141483075Y-116286105D01*
X141483075Y-116286105D02*
X134943075Y-116286105D01*
X134943075Y-119026105D02*
X134943075Y-118696105D01*
X134943075Y-116286105D02*
X134943075Y-116616105D01*
%TO.C,R2*%
X113760000Y-135990000D02*
X107220000Y-135990000D01*
X113760000Y-135660000D02*
X113760000Y-135990000D01*
X113760000Y-133580000D02*
X113760000Y-133250000D01*
X113760000Y-133250000D02*
X107220000Y-133250000D01*
X107220000Y-135990000D02*
X107220000Y-135660000D01*
X107220000Y-133250000D02*
X107220000Y-133580000D01*
%TO.C,R3*%
X138330000Y-141700000D02*
X138330000Y-135160000D01*
X138660000Y-141700000D02*
X138330000Y-141700000D01*
X140740000Y-141700000D02*
X141070000Y-141700000D01*
X141070000Y-141700000D02*
X141070000Y-135160000D01*
X138330000Y-135160000D02*
X138660000Y-135160000D01*
X141070000Y-135160000D02*
X140740000Y-135160000D01*
%TO.C,U1*%
X120590000Y-107830000D02*
X120590000Y-143630000D01*
X120590000Y-143630000D02*
X130870000Y-143630000D01*
X123080000Y-107890000D02*
X123080000Y-143570000D01*
X123080000Y-143570000D02*
X128380000Y-143570000D01*
X124730000Y-107890000D02*
X123080000Y-107890000D01*
X128380000Y-107890000D02*
X126730000Y-107890000D01*
X128380000Y-143570000D02*
X128380000Y-107890000D01*
X130870000Y-107830000D02*
X120590000Y-107830000D01*
X130870000Y-143630000D02*
X130870000Y-107830000D01*
X124730000Y-107890000D02*
G75*
G03*
X126730000Y-107890000I1000000J0D01*
G01*
%TO.C,D3*%
X138478851Y-112033498D02*
X138634851Y-112033498D01*
X140794851Y-112033498D02*
X140950851Y-112033498D01*
X138636243Y-108801164D02*
G75*
G03*
X138479336Y-112033497I1078608J-1672334D01*
G01*
X138635015Y-109432369D02*
G75*
G03*
X138634852Y-111514458I1079836J-1041129D01*
G01*
X140794850Y-111514458D02*
G75*
G03*
X140794687Y-109432369I-1079999J1040960D01*
G01*
X140950366Y-112033497D02*
G75*
G03*
X140793459Y-108801164I-1235515J1559999D01*
G01*
%TO.C,J2*%
X100270000Y-102870000D02*
X100270000Y-105470000D01*
X100270000Y-102870000D02*
X102930000Y-102870000D01*
X100270000Y-105470000D02*
X102930000Y-105470000D01*
X101600000Y-100270000D02*
X102930000Y-100270000D01*
X102930000Y-100270000D02*
X102930000Y-101600000D01*
X102930000Y-102870000D02*
X102930000Y-105470000D01*
%TO.C,C1*%
X139790000Y-131261000D02*
X139790000Y-130595000D01*
X139790000Y-131261000D02*
X134450000Y-131261000D01*
X139790000Y-128485000D02*
X139790000Y-127819000D01*
X139790000Y-127819000D02*
X134450000Y-127819000D01*
X134450000Y-131261000D02*
X134450000Y-130595000D01*
X134450000Y-128485000D02*
X134450000Y-127819000D01*
%TO.C,R4*%
X133250000Y-141700000D02*
X133250000Y-135160000D01*
X133580000Y-141700000D02*
X133250000Y-141700000D01*
X135660000Y-141700000D02*
X135990000Y-141700000D01*
X135990000Y-141700000D02*
X135990000Y-135160000D01*
X133250000Y-135160000D02*
X133580000Y-135160000D01*
X135990000Y-135160000D02*
X135660000Y-135160000D01*
%TO.C,SW1*%
X115237492Y-143510000D02*
X115237492Y-138370000D01*
X115237492Y-143510000D02*
X110157492Y-143510000D01*
X115237492Y-138370000D02*
X110157492Y-138370000D01*
X112697492Y-146110000D02*
X111367492Y-146110000D01*
X111367492Y-146110000D02*
X111367492Y-144780000D01*
X110157492Y-143510000D02*
X110157492Y-138370000D01*
%TD*%
D14*
X100000000Y-100000000D02*
X150000000Y-100000000D01*
X150000000Y-150000000D01*
X100000000Y-150000000D01*
X100000000Y-100000000D01*
M02*
